<svg width="24" height="24" viewBox="0 0 24 24" xmlns="http://www.w3.org/2000/svg"><path d="M10.993 6.545c.53-.48.86-1.16.86-1.914C11.853 3.178 10.627 2 9.116 2 7.604 2 6.379 3.178 6.379 4.63c0 1.453 1.225 2.631 2.737 2.631.152 0 .3-.012.446-.035l.306.52L7.18 8.758 2.467 5.615 2 7.597l5.216 2.457 2.652-1.296 1.52 3.308-5.734 1.713.396 6.853-2.362 1.505 4.6-.027-.66-7.68 5.213-1.458-.457 6.404 7.353-3.693 2.263.335-1.574-2.794-6.045 3.5 1.005-4.267-3.002-4.71 4.59-1.695 3.464 1.855.92-.979-4.605-2.823-5.366 2.93-.394-.49z" fill-rule="evenodd"/></svg>