<svg width="24px" height="24px" viewBox="0 0 24 24" version="1.1" xmlns="http://www.w3.org/2000/svg" xmlns:xlink="http://www.w3.org/1999/xlink">
    <rect id="transparent-background" stroke="none" fill="none" opacity="0" x="0" y="0" width="24" height="24"></rect>
    <path d="M10.9928975,6.54493572 C11.5221497,6.0652526 11.8525131,5.38502837 11.8525131,4.63063703 C11.8525131,3.17777631 10.6272019,2 9.11570389,2 C7.60420591,2 6.3788947,3.17777631 6.3788947,4.63063703 C6.3788947,6.08349774 7.60420591,7.26127405 9.11570389,7.26127405 C9.26769301,7.26127405 9.41678839,7.24936513 9.56203518,7.22646508 L9.86790895,7.74605734 L7.18040572,8.75846665 L2.46740309,5.61481295 L2,7.59671394 L7.2160223,10.05443 L9.86790895,8.75846665 L11.3871235,12.0660748 L5.65387167,13.7785049 L6.0496471,20.6318963 L3.68759683,22.136994 L8.28884599,22.1099534 L7.62871006,14.4292984 L12.840861,12.9720839 L12.3842977,19.3762324 L19.7370267,15.6825847 L22,16.0179946 L20.4256439,13.2241319 L14.3808909,16.7232824 L15.3856398,12.4565763 L12.3842977,7.74605734 L16.9734166,6.05192767 L20.4377742,7.90681236 L21.3581273,6.92814176 L16.7530068,4.10450962 L11.3871235,7.0342875 L10.9928975,6.54493572 Z" id="Combined-Shape" stroke="none" fill="#000000" fill-rule="evenodd"></path>
</svg>
